<svg width="1098" height="1190" viewBox="0 0 1098 1190" fill="none" xmlns="http://www.w3.org/2000/svg">
<path d="M433.159 433.838C326.859 407.818 253.961 489.685 256.816 566.792H288.146C291.319 469.06 395.166 430.664 461.484 486.512V439.549C467.831 328.172 644.258 302.152 668.056 439.549C671.286 454.768 666.686 574.295 668.056 588.052C669.426 601.81 691.447 643.467 726.125 645.486C760.803 647.506 784.205 644.193 784.828 645.486C865.743 634.698 856.224 525.542 784.828 520.147H746.115L780.703 550.292C821.319 554.417 824.492 609.63 780.703 615.024C780.703 615.024 746.75 619.149 729.298 615.024C711.846 610.899 702.009 600.11 700.74 581.706C699.47 563.302 700.74 550.292 700.74 550.292V526.811C700.702 476.019 700.747 445.894 699.153 433.838C676.306 274.546 446.804 277.52 433.159 433.838Z" fill="#B3BCF7"/>
<circle cx="387.466" cy="381.282" r="31.7315" fill="url(#paint0_linear_659_2)"/>
<circle cx="564.845" cy="268.635" r="36.4912" fill="url(#paint1_linear_659_2)"/>
<circle cx="747.935" cy="482.188" r="27.9237" fill="url(#paint2_linear_659_2)"/>
<path d="M537.214 675.591C532.73 637.391 527.939 549.458 525.156 538.511C519.371 499.005 474.553 445.046 433.159 433.639C429.105 473.093 429.142 539.902 429.01 645.128C429.01 713.351 318.291 747.145 291.002 656.393C288.146 640.528 288.794 626.427 288.44 567.069C285.584 545.492 256.391 551.521 256.708 566.117C256.299 605.985 255.567 615.321 256.708 633.23C254.511 776.021 455.688 776.656 461.376 647.667L462.328 487.107C481.181 507.518 493.596 526.771 496.207 557.709L503.579 675.591C516.198 759.521 626.38 766.343 653.669 687.966L685.4 573.415C689.843 560.088 699.703 551.996 714.3 550.41L781.57 549.141C799.34 547.872 794.874 521.058 777.422 520.107H710.468C683.496 520.107 659.698 542.001 653.669 562.944C653.669 562.944 634.522 638.443 618.13 683.206C601.737 727.97 541.699 713.791 537.214 675.591Z" fill="#434CBB"/>
<path d="M780.618 550.41C791.028 550.41 801.244 543.416 801.244 535.179C801.244 526.943 791.98 519.948 781.57 519.948L706.049 520.266V550.093L780.618 550.41Z" fill="url(#paint3_linear_659_2)"/>
<path d="M272.548 547.017C263.812 547.017 256.89 545.48 256.89 554.625C256.079 589.856 255.378 610.952 256.89 633.549L289.001 635.768C288.929 592.889 288.576 572.086 290.27 547.017C290.27 537.873 281.284 547.017 272.548 547.017Z" fill="url(#paint4_linear_659_2)"/>
<g filter="url(#filter0_i_659_2)">
<path d="M727.539 615.46C746.124 616.929 757.956 616.953 781.771 615.46C800.752 616.704 804.48 643.758 781.771 645.934C760.986 647.578 749.127 647.643 727.539 645.934C703.474 644.069 706.185 616.082 727.539 615.46Z" fill="url(#paint5_linear_659_2)"/>
</g>
<path d="M243.045 849.856H237.136L254.227 803.311H260.045L277.136 849.856H271.227L257.318 810.674H256.955L243.045 849.856ZM245.227 831.674H269.045V836.674H245.227V831.674ZM297.75 863.674C295.159 863.674 292.932 863.341 291.068 862.674C289.205 862.023 287.652 861.159 286.409 860.083C285.182 859.023 284.205 857.886 283.477 856.674L287.75 853.674C288.235 854.311 288.848 855.038 289.591 855.856C290.333 856.689 291.348 857.409 292.636 858.015C293.939 858.636 295.644 858.947 297.75 858.947C300.568 858.947 302.894 858.265 304.727 856.901C306.561 855.538 307.477 853.401 307.477 850.492V843.401H307.023C306.629 844.038 306.068 844.826 305.341 845.765C304.629 846.689 303.598 847.515 302.25 848.242C300.917 848.954 299.114 849.311 296.841 849.311C294.023 849.311 291.492 848.644 289.25 847.311C287.023 845.977 285.258 844.038 283.955 841.492C282.667 838.947 282.023 835.856 282.023 832.22C282.023 828.644 282.652 825.53 283.909 822.879C285.167 820.212 286.917 818.151 289.159 816.697C291.402 815.227 293.992 814.492 296.932 814.492C299.205 814.492 301.008 814.871 302.341 815.629C303.689 816.371 304.72 817.22 305.432 818.174C306.159 819.114 306.72 819.886 307.114 820.492H307.659V814.947H312.841V850.856C312.841 853.856 312.159 856.295 310.795 858.174C309.447 860.068 307.629 861.454 305.341 862.333C303.068 863.227 300.538 863.674 297.75 863.674ZM297.568 844.492C299.72 844.492 301.538 844 303.023 843.015C304.508 842.03 305.636 840.614 306.409 838.765C307.182 836.917 307.568 834.704 307.568 832.129C307.568 829.614 307.189 827.394 306.432 825.47C305.674 823.545 304.553 822.038 303.068 820.947C301.583 819.856 299.75 819.311 297.568 819.311C295.295 819.311 293.402 819.886 291.886 821.038C290.386 822.189 289.258 823.735 288.5 825.674C287.758 827.614 287.386 829.765 287.386 832.129C287.386 834.553 287.765 836.697 288.523 838.561C289.295 840.409 290.432 841.864 291.932 842.924C293.447 843.97 295.326 844.492 297.568 844.492ZM344.659 835.583V814.947H350.023V849.856H344.659V843.947H344.295C343.477 845.72 342.205 847.227 340.477 848.47C338.75 849.697 336.568 850.311 333.932 850.311C331.75 850.311 329.811 849.833 328.114 848.879C326.417 847.909 325.083 846.454 324.114 844.515C323.144 842.561 322.659 840.098 322.659 837.129V814.947H328.023V836.765C328.023 839.311 328.735 841.341 330.159 842.856C331.598 844.371 333.432 845.129 335.659 845.129C336.992 845.129 338.348 844.788 339.727 844.106C341.121 843.424 342.288 842.379 343.227 840.97C344.182 839.561 344.659 837.765 344.659 835.583ZM370.119 850.674C367.907 850.674 365.9 850.257 364.097 849.424C362.294 848.576 360.862 847.356 359.801 845.765C358.741 844.159 358.21 842.22 358.21 839.947C358.21 837.947 358.604 836.326 359.392 835.083C360.18 833.826 361.233 832.841 362.551 832.129C363.869 831.417 365.324 830.886 366.915 830.538C368.521 830.174 370.134 829.886 371.756 829.674C373.877 829.401 375.597 829.197 376.915 829.061C378.248 828.909 379.218 828.659 379.824 828.311C380.445 827.962 380.756 827.356 380.756 826.492V826.311C380.756 824.068 380.142 822.326 378.915 821.083C377.703 819.841 375.862 819.22 373.392 819.22C370.831 819.22 368.824 819.78 367.369 820.901C365.915 822.023 364.892 823.22 364.301 824.492L359.21 822.674C360.119 820.553 361.331 818.901 362.847 817.72C364.377 816.523 366.044 815.689 367.847 815.22C369.665 814.735 371.453 814.492 373.21 814.492C374.331 814.492 375.619 814.629 377.074 814.901C378.544 815.159 379.96 815.697 381.324 816.515C382.703 817.333 383.847 818.568 384.756 820.22C385.665 821.871 386.119 824.083 386.119 826.856V849.856H380.756V845.129H380.483C380.119 845.886 379.513 846.697 378.665 847.561C377.816 848.424 376.688 849.159 375.278 849.765C373.869 850.371 372.15 850.674 370.119 850.674ZM370.938 845.856C373.059 845.856 374.847 845.439 376.301 844.606C377.771 843.773 378.877 842.697 379.619 841.379C380.377 840.061 380.756 838.674 380.756 837.22V832.311C380.528 832.583 380.028 832.833 379.256 833.061C378.498 833.273 377.619 833.462 376.619 833.629C375.634 833.78 374.672 833.917 373.733 834.038C372.809 834.144 372.059 834.235 371.483 834.311C370.089 834.492 368.786 834.788 367.574 835.197C366.377 835.591 365.407 836.189 364.665 836.992C363.938 837.78 363.574 838.856 363.574 840.22C363.574 842.083 364.263 843.492 365.642 844.447C367.036 845.386 368.801 845.856 370.938 845.856ZM395.909 849.856V814.947H401.091V820.22H401.455C402.091 818.492 403.242 817.091 404.909 816.015C406.576 814.939 408.455 814.401 410.545 814.401C410.939 814.401 411.432 814.409 412.023 814.424C412.614 814.439 413.061 814.462 413.364 814.492V819.947C413.182 819.901 412.765 819.833 412.114 819.742C411.477 819.636 410.803 819.583 410.091 819.583C408.394 819.583 406.879 819.939 405.545 820.651C404.227 821.348 403.182 822.318 402.409 823.561C401.652 824.788 401.273 826.189 401.273 827.765V849.856H395.909ZM431.841 850.583C428.932 850.583 426.364 849.848 424.136 848.379C421.909 846.894 420.167 844.803 418.909 842.106C417.652 839.394 417.023 836.189 417.023 832.492C417.023 828.826 417.652 825.644 418.909 822.947C420.167 820.25 421.917 818.167 424.159 816.697C426.402 815.227 428.992 814.492 431.932 814.492C434.205 814.492 436 814.871 437.318 815.629C438.652 816.371 439.667 817.22 440.364 818.174C441.076 819.114 441.629 819.886 442.023 820.492H442.477V803.311H447.841V849.856H442.659V844.492H442.023C441.629 845.129 441.068 845.932 440.341 846.901C439.614 847.856 438.576 848.712 437.227 849.47C435.879 850.212 434.083 850.583 431.841 850.583ZM432.568 845.765C434.72 845.765 436.538 845.204 438.023 844.083C439.508 842.947 440.636 841.379 441.409 839.379C442.182 837.364 442.568 835.038 442.568 832.401C442.568 829.795 442.189 827.515 441.432 825.561C440.674 823.591 439.553 822.061 438.068 820.97C436.583 819.864 434.75 819.311 432.568 819.311C430.295 819.311 428.402 819.894 426.886 821.061C425.386 822.212 424.258 823.78 423.5 825.765C422.758 827.735 422.386 829.947 422.386 832.401C422.386 834.886 422.765 837.144 423.523 839.174C424.295 841.189 425.432 842.795 426.932 843.992C428.447 845.174 430.326 845.765 432.568 845.765ZM473.045 850.583C469.682 850.583 466.78 849.841 464.341 848.356C461.917 846.856 460.045 844.765 458.727 842.083C457.424 839.386 456.773 836.25 456.773 832.674C456.773 829.098 457.424 825.947 458.727 823.22C460.045 820.477 461.879 818.341 464.227 816.811C466.591 815.265 469.348 814.492 472.5 814.492C474.318 814.492 476.114 814.795 477.886 815.401C479.659 816.007 481.273 816.992 482.727 818.356C484.182 819.704 485.341 821.492 486.205 823.72C487.068 825.947 487.5 828.689 487.5 831.947V834.22H460.591V829.583H482.045C482.045 827.614 481.652 825.856 480.864 824.311C480.091 822.765 478.985 821.545 477.545 820.651C476.121 819.757 474.439 819.311 472.5 819.311C470.364 819.311 468.515 819.841 466.955 820.901C465.409 821.947 464.22 823.311 463.386 824.992C462.553 826.674 462.136 828.477 462.136 830.401V833.492C462.136 836.129 462.591 838.364 463.5 840.197C464.424 842.015 465.705 843.401 467.341 844.356C468.977 845.295 470.879 845.765 473.045 845.765C474.455 845.765 475.727 845.568 476.864 845.174C478.015 844.765 479.008 844.159 479.841 843.356C480.674 842.538 481.318 841.523 481.773 840.311L486.955 841.765C486.409 843.523 485.492 845.068 484.205 846.401C482.917 847.72 481.326 848.75 479.432 849.492C477.538 850.22 475.409 850.583 473.045 850.583ZM535.659 835.583V814.947H541.023V849.856H535.659V843.947H535.295C534.477 845.72 533.205 847.227 531.477 848.47C529.75 849.697 527.568 850.311 524.932 850.311C522.75 850.311 520.811 849.833 519.114 848.879C517.417 847.909 516.083 846.454 515.114 844.515C514.144 842.561 513.659 840.098 513.659 837.129V814.947H519.023V836.765C519.023 839.311 519.735 841.341 521.159 842.856C522.598 844.371 524.432 845.129 526.659 845.129C527.992 845.129 529.348 844.788 530.727 844.106C532.121 843.424 533.288 842.379 534.227 840.97C535.182 839.561 535.659 837.765 535.659 835.583ZM550.847 849.856V814.947H556.028V820.401H556.483C557.21 818.538 558.384 817.091 560.006 816.061C561.627 815.015 563.574 814.492 565.847 814.492C568.15 814.492 570.066 815.015 571.597 816.061C573.142 817.091 574.347 818.538 575.21 820.401H575.574C576.468 818.598 577.809 817.167 579.597 816.106C581.384 815.03 583.528 814.492 586.028 814.492C589.15 814.492 591.703 815.47 593.688 817.424C595.672 819.364 596.665 822.386 596.665 826.492V849.856H591.301V826.492C591.301 823.917 590.597 822.076 589.188 820.97C587.778 819.864 586.119 819.311 584.21 819.311C581.756 819.311 579.854 820.053 578.506 821.538C577.157 823.007 576.483 824.871 576.483 827.129V849.856H571.028V825.947C571.028 823.962 570.384 822.364 569.097 821.151C567.809 819.924 566.15 819.311 564.119 819.311C562.725 819.311 561.422 819.682 560.21 820.424C559.013 821.167 558.044 822.197 557.301 823.515C556.574 824.818 556.21 826.326 556.21 828.038V849.856H550.847ZM624.472 849.856V814.947H629.835V849.856H624.472ZM627.199 809.129C626.153 809.129 625.252 808.773 624.494 808.061C623.752 807.348 623.381 806.492 623.381 805.492C623.381 804.492 623.752 803.636 624.494 802.924C625.252 802.212 626.153 801.856 627.199 801.856C628.244 801.856 629.138 802.212 629.881 802.924C630.638 803.636 631.017 804.492 631.017 805.492C631.017 806.492 630.638 807.348 629.881 808.061C629.138 808.773 628.244 809.129 627.199 809.129ZM645.023 828.856V849.856H639.659V814.947H644.841V820.401H645.295C646.114 818.629 647.356 817.204 649.023 816.129C650.689 815.038 652.841 814.492 655.477 814.492C657.841 814.492 659.909 814.977 661.682 815.947C663.455 816.901 664.833 818.356 665.818 820.311C666.803 822.25 667.295 824.704 667.295 827.674V849.856H661.932V828.038C661.932 825.295 661.22 823.159 659.795 821.629C658.371 820.083 656.417 819.311 653.932 819.311C652.22 819.311 650.689 819.682 649.341 820.424C648.008 821.167 646.955 822.25 646.182 823.674C645.409 825.098 645.023 826.826 645.023 828.856ZM701.824 822.765L697.006 824.129C696.703 823.326 696.256 822.545 695.665 821.788C695.089 821.015 694.301 820.379 693.301 819.879C692.301 819.379 691.021 819.129 689.46 819.129C687.324 819.129 685.544 819.621 684.119 820.606C682.71 821.576 682.006 822.811 682.006 824.311C682.006 825.644 682.491 826.697 683.46 827.47C684.43 828.242 685.945 828.886 688.006 829.401L693.188 830.674C696.309 831.432 698.634 832.591 700.165 834.151C701.695 835.697 702.46 837.689 702.46 840.129C702.46 842.129 701.884 843.917 700.733 845.492C699.597 847.068 698.006 848.311 695.96 849.22C693.915 850.129 691.536 850.583 688.824 850.583C685.263 850.583 682.316 849.811 679.983 848.265C677.65 846.72 676.172 844.462 675.551 841.492L680.642 840.22C681.127 842.098 682.044 843.507 683.392 844.447C684.756 845.386 686.536 845.856 688.733 845.856C691.233 845.856 693.218 845.326 694.688 844.265C696.172 843.189 696.915 841.901 696.915 840.401C696.915 839.189 696.491 838.174 695.642 837.356C694.794 836.523 693.491 835.901 691.733 835.492L685.915 834.129C682.718 833.371 680.369 832.197 678.869 830.606C677.384 829 676.642 826.992 676.642 824.583C676.642 822.614 677.195 820.871 678.301 819.356C679.422 817.841 680.945 816.651 682.869 815.788C684.809 814.924 687.006 814.492 689.46 814.492C692.915 814.492 695.627 815.25 697.597 816.765C699.581 818.28 700.991 820.28 701.824 822.765ZM725.716 814.947V819.492H707.625V814.947H725.716ZM712.898 806.583H718.261V839.856C718.261 841.371 718.481 842.507 718.92 843.265C719.375 844.007 719.951 844.507 720.648 844.765C721.36 845.007 722.11 845.129 722.898 845.129C723.489 845.129 723.973 845.098 724.352 845.038C724.731 844.962 725.034 844.901 725.261 844.856L726.352 849.674C725.989 849.811 725.481 849.947 724.83 850.083C724.178 850.235 723.352 850.311 722.352 850.311C720.837 850.311 719.352 849.985 717.898 849.333C716.458 848.682 715.261 847.689 714.307 846.356C713.367 845.023 712.898 843.341 712.898 841.311V806.583ZM744.057 850.674C741.845 850.674 739.837 850.257 738.034 849.424C736.231 848.576 734.799 847.356 733.739 845.765C732.678 844.159 732.148 842.22 732.148 839.947C732.148 837.947 732.542 836.326 733.33 835.083C734.117 833.826 735.17 832.841 736.489 832.129C737.807 831.417 739.261 830.886 740.852 830.538C742.458 830.174 744.072 829.886 745.693 829.674C747.814 829.401 749.534 829.197 750.852 829.061C752.186 828.909 753.155 828.659 753.761 828.311C754.383 827.962 754.693 827.356 754.693 826.492V826.311C754.693 824.068 754.08 822.326 752.852 821.083C751.64 819.841 749.799 819.22 747.33 819.22C744.769 819.22 742.761 819.78 741.307 820.901C739.852 822.023 738.83 823.22 738.239 824.492L733.148 822.674C734.057 820.553 735.269 818.901 736.784 817.72C738.314 816.523 739.981 815.689 741.784 815.22C743.602 814.735 745.39 814.492 747.148 814.492C748.269 814.492 749.557 814.629 751.011 814.901C752.481 815.159 753.898 815.697 755.261 816.515C756.64 817.333 757.784 818.568 758.693 820.22C759.602 821.871 760.057 824.083 760.057 826.856V849.856H754.693V845.129H754.42C754.057 845.886 753.451 846.697 752.602 847.561C751.754 848.424 750.625 849.159 749.216 849.765C747.807 850.371 746.087 850.674 744.057 850.674ZM744.875 845.856C746.996 845.856 748.784 845.439 750.239 844.606C751.708 843.773 752.814 842.697 753.557 841.379C754.314 840.061 754.693 838.674 754.693 837.22V832.311C754.466 832.583 753.966 832.833 753.193 833.061C752.436 833.273 751.557 833.462 750.557 833.629C749.572 833.78 748.61 833.917 747.67 834.038C746.746 834.144 745.996 834.235 745.42 834.311C744.027 834.492 742.723 834.788 741.511 835.197C740.314 835.591 739.345 836.189 738.602 836.992C737.875 837.78 737.511 838.856 737.511 840.22C737.511 842.083 738.201 843.492 739.58 844.447C740.973 845.386 742.739 845.856 744.875 845.856ZM775.21 828.856V849.856H769.847V814.947H775.028V820.401H775.483C776.301 818.629 777.544 817.204 779.21 816.129C780.877 815.038 783.028 814.492 785.665 814.492C788.028 814.492 790.097 814.977 791.869 815.947C793.642 816.901 795.021 818.356 796.006 820.311C796.991 822.25 797.483 824.704 797.483 827.674V849.856H792.119V828.038C792.119 825.295 791.407 823.159 789.983 821.629C788.559 820.083 786.604 819.311 784.119 819.311C782.407 819.311 780.877 819.682 779.528 820.424C778.195 821.167 777.142 822.25 776.369 823.674C775.597 825.098 775.21 826.826 775.21 828.856ZM822.466 814.947V819.492H804.375V814.947H822.466ZM809.648 806.583H815.011V839.856C815.011 841.371 815.231 842.507 815.67 843.265C816.125 844.007 816.701 844.507 817.398 844.765C818.11 845.007 818.86 845.129 819.648 845.129C820.239 845.129 820.723 845.098 821.102 845.038C821.481 844.962 821.784 844.901 822.011 844.856L823.102 849.674C822.739 849.811 822.231 849.947 821.58 850.083C820.928 850.235 820.102 850.311 819.102 850.311C817.587 850.311 816.102 849.985 814.648 849.333C813.208 848.682 812.011 847.689 811.057 846.356C810.117 845.023 809.648 843.341 809.648 841.311V806.583ZM844.795 850.583C841.432 850.583 838.53 849.841 836.091 848.356C833.667 846.856 831.795 844.765 830.477 842.083C829.174 839.386 828.523 836.25 828.523 832.674C828.523 829.098 829.174 825.947 830.477 823.22C831.795 820.477 833.629 818.341 835.977 816.811C838.341 815.265 841.098 814.492 844.25 814.492C846.068 814.492 847.864 814.795 849.636 815.401C851.409 816.007 853.023 816.992 854.477 818.356C855.932 819.704 857.091 821.492 857.955 823.72C858.818 825.947 859.25 828.689 859.25 831.947V834.22H832.341V829.583H853.795C853.795 827.614 853.402 825.856 852.614 824.311C851.841 822.765 850.735 821.545 849.295 820.651C847.871 819.757 846.189 819.311 844.25 819.311C842.114 819.311 840.265 819.841 838.705 820.901C837.159 821.947 835.97 823.311 835.136 824.992C834.303 826.674 833.886 828.477 833.886 830.401V833.492C833.886 836.129 834.341 838.364 835.25 840.197C836.174 842.015 837.455 843.401 839.091 844.356C840.727 845.295 842.629 845.765 844.795 845.765C846.205 845.765 847.477 845.568 848.614 845.174C849.765 844.765 850.758 844.159 851.591 843.356C852.424 842.538 853.068 841.523 853.523 840.311L858.705 841.765C858.159 843.523 857.242 845.068 855.955 846.401C854.667 847.72 853.076 848.75 851.182 849.492C849.288 850.22 847.159 850.583 844.795 850.583Z" fill="#434CBB"/>
<path d="M339.523 948.856V919.765H349.352C351.634 919.765 353.5 920.177 354.949 921.001C356.407 921.815 357.487 922.918 358.188 924.311C358.888 925.703 359.239 927.256 359.239 928.97C359.239 930.684 358.888 932.241 358.188 933.643C357.496 935.044 356.426 936.162 354.977 936.995C353.528 937.819 351.672 938.231 349.409 938.231H342.364V935.106H349.295C350.858 935.106 352.113 934.836 353.06 934.296C354.007 933.757 354.693 933.027 355.119 932.109C355.555 931.181 355.773 930.134 355.773 928.97C355.773 927.805 355.555 926.763 355.119 925.845C354.693 924.926 354.002 924.206 353.045 923.686C352.089 923.155 350.82 922.89 349.239 922.89H343.045V948.856H339.523ZM367.811 919.765V948.856H364.459V919.765H367.811ZM383.099 949.311C380.996 949.311 379.183 948.846 377.658 947.918C376.143 946.981 374.974 945.674 374.15 943.998C373.335 942.312 372.928 940.352 372.928 938.117C372.928 935.882 373.335 933.913 374.15 932.208C374.974 930.494 376.12 929.159 377.587 928.203C379.065 927.237 380.788 926.754 382.758 926.754C383.894 926.754 385.016 926.943 386.124 927.322C387.232 927.701 388.241 928.316 389.15 929.168C390.059 930.011 390.783 931.129 391.323 932.521C391.863 933.913 392.133 935.627 392.133 937.663V939.083H375.315V936.186H388.724C388.724 934.954 388.478 933.856 387.985 932.89C387.502 931.924 386.811 931.162 385.911 930.603C385.021 930.044 383.97 929.765 382.758 929.765C381.423 929.765 380.267 930.096 379.292 930.759C378.326 931.413 377.583 932.265 377.062 933.316C376.541 934.367 376.281 935.494 376.281 936.697V938.629C376.281 940.276 376.565 941.673 377.133 942.819C377.71 943.955 378.511 944.822 379.533 945.418C380.556 946.006 381.745 946.299 383.099 946.299C383.979 946.299 384.775 946.176 385.485 945.93C386.205 945.674 386.825 945.295 387.346 944.793C387.867 944.282 388.269 943.648 388.553 942.89L391.792 943.799C391.451 944.898 390.878 945.864 390.073 946.697C389.268 947.521 388.274 948.165 387.09 948.629C385.906 949.083 384.576 949.311 383.099 949.311ZM403.653 949.367C402.27 949.367 401.015 949.107 399.888 948.586C398.762 948.056 397.867 947.293 397.204 946.299C396.541 945.295 396.21 944.083 396.21 942.663C396.21 941.413 396.456 940.4 396.948 939.623C397.441 938.837 398.099 938.221 398.923 937.776C399.746 937.331 400.656 937 401.65 936.782C402.654 936.555 403.662 936.375 404.675 936.242C406.001 936.072 407.076 935.944 407.9 935.859C408.733 935.764 409.339 935.608 409.718 935.39C410.106 935.172 410.3 934.793 410.3 934.254V934.14C410.3 932.739 409.917 931.65 409.15 930.873C408.392 930.096 407.242 929.708 405.698 929.708C404.098 929.708 402.843 930.059 401.934 930.759C401.025 931.46 400.386 932.208 400.016 933.004L396.835 931.867C397.403 930.542 398.16 929.509 399.107 928.771C400.064 928.023 401.105 927.502 402.232 927.208C403.369 926.905 404.486 926.754 405.585 926.754C406.285 926.754 407.09 926.839 407.999 927.009C408.918 927.17 409.803 927.507 410.656 928.018C411.517 928.529 412.232 929.301 412.8 930.333C413.369 931.365 413.653 932.748 413.653 934.481V948.856H410.3V945.901H410.13C409.903 946.375 409.524 946.882 408.994 947.421C408.463 947.961 407.758 948.42 406.877 948.799C405.996 949.178 404.922 949.367 403.653 949.367ZM404.164 946.356C405.49 946.356 406.607 946.096 407.516 945.575C408.435 945.054 409.126 944.382 409.59 943.558C410.064 942.734 410.3 941.867 410.3 940.958V937.89C410.158 938.061 409.846 938.217 409.363 938.359C408.889 938.491 408.34 938.61 407.715 938.714C407.1 938.809 406.498 938.894 405.911 938.97C405.334 939.036 404.865 939.093 404.505 939.14C403.634 939.254 402.819 939.438 402.062 939.694C401.314 939.94 400.708 940.314 400.244 940.816C399.789 941.309 399.562 941.981 399.562 942.833C399.562 943.998 399.993 944.879 400.854 945.475C401.726 946.062 402.829 946.356 404.164 946.356ZM435.226 931.924L432.214 932.776C432.025 932.275 431.746 931.787 431.376 931.313C431.017 930.83 430.524 930.433 429.899 930.12C429.274 929.808 428.474 929.651 427.499 929.651C426.163 929.651 425.051 929.959 424.161 930.575C423.28 931.181 422.839 931.953 422.839 932.89C422.839 933.723 423.143 934.382 423.749 934.864C424.355 935.347 425.302 935.75 426.589 936.072L429.828 936.867C431.779 937.341 433.232 938.065 434.189 939.041C435.145 940.007 435.624 941.252 435.624 942.776C435.624 944.026 435.264 945.144 434.544 946.129C433.834 947.114 432.839 947.89 431.561 948.458C430.283 949.026 428.796 949.311 427.101 949.311C424.875 949.311 423.034 948.828 421.575 947.862C420.117 946.896 419.194 945.485 418.805 943.629L421.987 942.833C422.29 944.007 422.863 944.888 423.706 945.475C424.558 946.062 425.671 946.356 427.044 946.356C428.607 946.356 429.847 946.025 430.766 945.362C431.694 944.689 432.158 943.884 432.158 942.947C432.158 942.189 431.893 941.555 431.362 941.043C430.832 940.523 430.018 940.134 428.919 939.879L425.283 939.026C423.285 938.553 421.817 937.819 420.879 936.825C419.951 935.821 419.487 934.566 419.487 933.061C419.487 931.829 419.833 930.74 420.524 929.793C421.225 928.846 422.177 928.103 423.379 927.563C424.591 927.024 425.964 926.754 427.499 926.754C429.658 926.754 431.353 927.227 432.584 928.174C433.824 929.121 434.705 930.371 435.226 931.924ZM449.817 949.311C447.715 949.311 445.902 948.846 444.377 947.918C442.862 946.981 441.692 945.674 440.869 943.998C440.054 942.312 439.647 940.352 439.647 938.117C439.647 935.882 440.054 933.913 440.869 932.208C441.692 930.494 442.838 929.159 444.306 928.203C445.783 927.237 447.507 926.754 449.477 926.754C450.613 926.754 451.735 926.943 452.843 927.322C453.951 927.701 454.96 928.316 455.869 929.168C456.778 930.011 457.502 931.129 458.042 932.521C458.582 933.913 458.852 935.627 458.852 937.663V939.083H442.033V936.186H455.442C455.442 934.954 455.196 933.856 454.704 932.89C454.221 931.924 453.53 931.162 452.63 930.603C451.74 930.044 450.689 929.765 449.477 929.765C448.141 929.765 446.986 930.096 446.011 930.759C445.045 931.413 444.301 932.265 443.781 933.316C443.26 934.367 442.999 935.494 442.999 936.697V938.629C442.999 940.276 443.283 941.673 443.852 942.819C444.429 943.955 445.229 944.822 446.252 945.418C447.275 946.006 448.463 946.299 449.817 946.299C450.698 946.299 451.494 946.176 452.204 945.93C452.924 945.674 453.544 945.295 454.065 944.793C454.585 944.282 454.988 943.648 455.272 942.89L458.511 943.799C458.17 944.898 457.597 945.864 456.792 946.697C455.987 947.521 454.993 948.165 453.809 948.629C452.625 949.083 451.295 949.311 449.817 949.311ZM480.144 948.856L473.496 927.038H477.019L481.735 943.742H481.962L486.621 927.038H490.201L494.803 943.686H495.031L499.746 927.038H503.269L496.621 948.856H493.326L488.553 932.095H488.212L483.44 948.856H480.144ZM514.121 949.367C512.739 949.367 511.484 949.107 510.357 948.586C509.23 948.056 508.335 947.293 507.673 946.299C507.01 945.295 506.678 944.083 506.678 942.663C506.678 941.413 506.924 940.4 507.417 939.623C507.909 938.837 508.567 938.221 509.391 937.776C510.215 937.331 511.124 937 512.119 936.782C513.122 936.555 514.131 936.375 515.144 936.242C516.47 936.072 517.545 935.944 518.369 935.859C519.202 935.764 519.808 935.608 520.187 935.39C520.575 935.172 520.769 934.793 520.769 934.254V934.14C520.769 932.739 520.386 931.65 519.619 930.873C518.861 930.096 517.71 929.708 516.167 929.708C514.567 929.708 513.312 930.059 512.403 930.759C511.494 931.46 510.854 932.208 510.485 933.004L507.303 931.867C507.871 930.542 508.629 929.509 509.576 928.771C510.532 928.023 511.574 927.502 512.701 927.208C513.837 926.905 514.955 926.754 516.053 926.754C516.754 926.754 517.559 926.839 518.468 927.009C519.387 927.17 520.272 927.507 521.124 928.018C521.986 928.529 522.701 929.301 523.269 930.333C523.837 931.365 524.121 932.748 524.121 934.481V948.856H520.769V945.901H520.599C520.371 946.375 519.993 946.882 519.462 947.421C518.932 947.961 518.227 948.42 517.346 948.799C516.465 949.178 515.39 949.367 514.121 949.367ZM514.633 946.356C515.959 946.356 517.076 946.096 517.985 945.575C518.904 945.054 519.595 944.382 520.059 943.558C520.532 942.734 520.769 941.867 520.769 940.958V937.89C520.627 938.061 520.315 938.217 519.832 938.359C519.358 938.491 518.809 938.61 518.184 938.714C517.568 938.809 516.967 938.894 516.38 938.97C515.802 939.036 515.334 939.093 514.974 939.14C514.103 939.254 513.288 939.438 512.531 939.694C511.782 939.94 511.176 940.314 510.712 940.816C510.258 941.309 510.031 941.981 510.031 942.833C510.031 943.998 510.461 944.879 511.323 945.475C512.194 946.062 513.298 946.356 514.633 946.356ZM530.24 948.856V927.038H533.592V948.856H530.24ZM531.945 923.401C531.291 923.401 530.728 923.179 530.254 922.734C529.79 922.289 529.558 921.754 529.558 921.129C529.558 920.504 529.79 919.969 530.254 919.524C530.728 919.078 531.291 918.856 531.945 918.856C532.598 918.856 533.157 919.078 533.621 919.524C534.094 919.969 534.331 920.504 534.331 921.129C534.331 921.754 534.094 922.289 533.621 922.734C533.157 923.179 532.598 923.401 531.945 923.401ZM549.221 927.038V929.879H537.914V927.038H549.221ZM541.21 921.811H544.562V942.606C544.562 943.553 544.699 944.263 544.974 944.737C545.258 945.201 545.618 945.513 546.053 945.674C546.498 945.826 546.967 945.901 547.46 945.901C547.829 945.901 548.132 945.882 548.369 945.845C548.605 945.797 548.795 945.759 548.937 945.731L549.619 948.742C549.391 948.828 549.074 948.913 548.667 948.998C548.26 949.093 547.744 949.14 547.119 949.14C546.172 949.14 545.244 948.936 544.335 948.529C543.435 948.122 542.687 947.502 542.09 946.668C541.503 945.835 541.21 944.784 541.21 943.515V921.811ZM571.934 949.367C570.551 949.367 569.297 949.107 568.17 948.586C567.043 948.056 566.148 947.293 565.485 946.299C564.822 945.295 564.491 944.083 564.491 942.663C564.491 941.413 564.737 940.4 565.229 939.623C565.722 938.837 566.38 938.221 567.204 937.776C568.028 937.331 568.937 937 569.931 936.782C570.935 936.555 571.943 936.375 572.957 936.242C574.282 936.072 575.357 935.944 576.181 935.859C577.014 935.764 577.621 935.608 577.999 935.39C578.388 935.172 578.582 934.793 578.582 934.254V934.14C578.582 932.739 578.198 931.65 577.431 930.873C576.674 930.096 575.523 929.708 573.979 929.708C572.379 929.708 571.124 930.059 570.215 930.759C569.306 931.46 568.667 932.208 568.298 933.004L565.116 931.867C565.684 930.542 566.442 929.509 567.388 928.771C568.345 928.023 569.387 927.502 570.513 927.208C571.65 926.905 572.767 926.754 573.866 926.754C574.567 926.754 575.371 926.839 576.281 927.009C577.199 927.17 578.085 927.507 578.937 928.018C579.799 928.529 580.513 929.301 581.082 930.333C581.65 931.365 581.934 932.748 581.934 934.481V948.856H578.582V945.901H578.411C578.184 946.375 577.805 946.882 577.275 947.421C576.745 947.961 576.039 948.42 575.158 948.799C574.278 949.178 573.203 949.367 571.934 949.367ZM572.445 946.356C573.771 946.356 574.888 946.096 575.798 945.575C576.716 945.054 577.407 944.382 577.871 943.558C578.345 942.734 578.582 941.867 578.582 940.958V937.89C578.44 938.061 578.127 938.217 577.644 938.359C577.171 938.491 576.621 938.61 575.996 938.714C575.381 938.809 574.78 938.894 574.192 938.97C573.615 939.036 573.146 939.093 572.786 939.14C571.915 939.254 571.101 939.438 570.343 939.694C569.595 939.94 568.989 940.314 568.525 940.816C568.07 941.309 567.843 941.981 567.843 942.833C567.843 943.998 568.274 944.879 569.136 945.475C570.007 946.062 571.11 946.356 572.445 946.356ZM599.303 948.856V927.038H602.541V930.447H602.825C603.28 929.282 604.014 928.378 605.027 927.734C606.04 927.08 607.257 926.754 608.678 926.754C610.117 926.754 611.315 927.08 612.271 927.734C613.237 928.378 613.99 929.282 614.53 930.447H614.757C615.316 929.32 616.154 928.425 617.271 927.762C618.389 927.09 619.729 926.754 621.291 926.754C623.242 926.754 624.838 927.364 626.078 928.586C627.319 929.798 627.939 931.687 627.939 934.254V948.856H624.587V934.254C624.587 932.644 624.146 931.493 623.266 930.802C622.385 930.111 621.348 929.765 620.155 929.765C618.621 929.765 617.432 930.229 616.589 931.157C615.747 932.076 615.325 933.24 615.325 934.651V948.856H611.916V933.913C611.916 932.672 611.514 931.673 610.709 930.916C609.904 930.149 608.867 929.765 607.598 929.765C606.727 929.765 605.912 929.997 605.155 930.461C604.407 930.925 603.801 931.569 603.337 932.393C602.882 933.207 602.655 934.15 602.655 935.22V948.856H599.303ZM642.932 949.311C640.962 949.311 639.234 948.842 637.747 947.904C636.27 946.967 635.115 945.655 634.281 943.97C633.457 942.284 633.045 940.314 633.045 938.061C633.045 935.788 633.457 933.804 634.281 932.109C635.115 930.414 636.27 929.097 637.747 928.16C639.234 927.222 640.962 926.754 642.932 926.754C644.902 926.754 646.625 927.222 648.102 928.16C649.589 929.097 650.744 930.414 651.568 932.109C652.402 933.804 652.818 935.788 652.818 938.061C652.818 940.314 652.402 942.284 651.568 943.97C650.744 945.655 649.589 946.967 648.102 947.904C646.625 948.842 644.902 949.311 642.932 949.311ZM642.932 946.299C644.428 946.299 645.659 945.916 646.625 945.149C647.591 944.382 648.306 943.373 648.77 942.123C649.234 940.873 649.466 939.519 649.466 938.061C649.466 936.602 649.234 935.243 648.77 933.984C648.306 932.724 647.591 931.706 646.625 930.93C645.659 930.153 644.428 929.765 642.932 929.765C641.436 929.765 640.205 930.153 639.239 930.93C638.273 931.706 637.558 932.724 637.094 933.984C636.63 935.243 636.398 936.602 636.398 938.061C636.398 939.519 636.63 940.873 637.094 942.123C637.558 943.373 638.273 944.382 639.239 945.149C640.205 945.916 641.436 946.299 642.932 946.299ZM657.935 948.856V927.038H661.174V930.447H661.458C661.913 929.282 662.647 928.378 663.66 927.734C664.673 927.08 665.89 926.754 667.31 926.754C668.75 926.754 669.948 927.08 670.904 927.734C671.87 928.378 672.623 929.282 673.163 930.447H673.39C673.949 929.32 674.787 928.425 675.904 927.762C677.022 927.09 678.362 926.754 679.924 926.754C681.875 926.754 683.47 927.364 684.711 928.586C685.951 929.798 686.572 931.687 686.572 934.254V948.856H683.219V934.254C683.219 932.644 682.779 931.493 681.898 930.802C681.018 930.111 679.981 929.765 678.788 929.765C677.254 929.765 676.065 930.229 675.222 931.157C674.379 932.076 673.958 933.24 673.958 934.651V948.856H670.549V933.913C670.549 932.672 670.147 931.673 669.342 930.916C668.537 930.149 667.5 929.765 666.231 929.765C665.36 929.765 664.545 929.997 663.788 930.461C663.04 930.925 662.433 931.569 661.969 932.393C661.515 933.207 661.288 934.15 661.288 935.22V948.856H657.935ZM701.849 949.311C699.746 949.311 697.933 948.846 696.408 947.918C694.893 946.981 693.724 945.674 692.9 943.998C692.085 942.312 691.678 940.352 691.678 938.117C691.678 935.882 692.085 933.913 692.9 932.208C693.724 930.494 694.87 929.159 696.337 928.203C697.815 927.237 699.538 926.754 701.508 926.754C702.644 926.754 703.766 926.943 704.874 927.322C705.982 927.701 706.991 928.316 707.9 929.168C708.809 930.011 709.533 931.129 710.073 932.521C710.613 933.913 710.883 935.627 710.883 937.663V939.083H694.065V936.186H707.474C707.474 934.954 707.228 933.856 706.735 932.89C706.252 931.924 705.561 931.162 704.661 930.603C703.771 930.044 702.72 929.765 701.508 929.765C700.173 929.765 699.017 930.096 698.042 930.759C697.076 931.413 696.333 932.265 695.812 933.316C695.291 934.367 695.031 935.494 695.031 936.697V938.629C695.031 940.276 695.315 941.673 695.883 942.819C696.46 943.955 697.261 944.822 698.283 945.418C699.306 946.006 700.495 946.299 701.849 946.299C702.729 946.299 703.525 946.176 704.235 945.93C704.955 945.674 705.575 945.295 706.096 944.793C706.617 944.282 707.019 943.648 707.303 942.89L710.542 943.799C710.201 944.898 709.628 945.864 708.823 946.697C708.018 947.521 707.024 948.165 705.84 948.629C704.656 949.083 703.326 949.311 701.849 949.311ZM719.335 935.731V948.856H715.982V927.038H719.221V930.447H719.505C720.016 929.339 720.793 928.449 721.835 927.776C722.876 927.095 724.221 926.754 725.869 926.754C727.346 926.754 728.638 927.057 729.746 927.663C730.854 928.259 731.716 929.168 732.332 930.39C732.947 931.602 733.255 933.136 733.255 934.992V948.856H729.903V935.22C729.903 933.506 729.458 932.17 728.567 931.214C727.677 930.248 726.456 929.765 724.903 929.765C723.833 929.765 722.876 929.997 722.033 930.461C721.2 930.925 720.542 931.602 720.059 932.492C719.576 933.382 719.335 934.462 719.335 935.731ZM748.869 927.038V929.879H737.562V927.038H748.869ZM740.858 921.811H744.21V942.606C744.21 943.553 744.348 944.263 744.622 944.737C744.906 945.201 745.266 945.513 745.702 945.674C746.147 945.826 746.616 945.901 747.108 945.901C747.477 945.901 747.78 945.882 748.017 945.845C748.254 945.797 748.443 945.759 748.585 945.731L749.267 948.742C749.04 948.828 748.723 948.913 748.315 948.998C747.908 949.093 747.392 949.14 746.767 949.14C745.82 949.14 744.892 948.936 743.983 948.529C743.083 948.122 742.335 947.502 741.739 946.668C741.152 945.835 740.858 944.784 740.858 943.515V921.811ZM756.355 949.083C755.654 949.083 755.053 948.832 754.551 948.33C754.049 947.828 753.798 947.227 753.798 946.526C753.798 945.826 754.049 945.224 754.551 944.722C755.053 944.221 755.654 943.97 756.355 943.97C757.056 943.97 757.657 944.221 758.159 944.722C758.661 945.224 758.912 945.826 758.912 946.526C758.912 946.99 758.794 947.417 758.557 947.805C758.33 948.193 758.022 948.506 757.634 948.742C757.255 948.97 756.829 949.083 756.355 949.083Z" fill="black"/>
<defs>
<filter id="filter0_i_659_2" x="710.492" y="615.46" width="86.9443" height="31.7314" filterUnits="userSpaceOnUse" color-interpolation-filters="sRGB">
<feFlood flood-opacity="0" result="BackgroundImageFix"/>
<feBlend mode="normal" in="SourceGraphic" in2="BackgroundImageFix" result="shape"/>
<feColorMatrix in="SourceAlpha" type="matrix" values="0 0 0 0 0 0 0 0 0 0 0 0 0 0 0 0 0 0 127 0" result="hardAlpha"/>
<feOffset/>
<feGaussianBlur stdDeviation="10"/>
<feComposite in2="hardAlpha" operator="arithmetic" k2="-1" k3="1"/>
<feColorMatrix type="matrix" values="0 0 0 0 0.701961 0 0 0 0 0.737255 0 0 0 0 0.968627 0 0 0 0.5 0"/>
<feBlend mode="normal" in2="shape" result="effect1_innerShadow_659_2"/>
</filter>
<linearGradient id="paint0_linear_659_2" x1="372.235" y1="375.887" x2="405.87" y2="433.639" gradientUnits="userSpaceOnUse">
<stop stop-color="#B3BCF7"/>
<stop offset="1" stop-color="#434CBB"/>
</linearGradient>
<linearGradient id="paint1_linear_659_2" x1="538.19" y1="261.654" x2="596.576" y2="314.011" gradientUnits="userSpaceOnUse">
<stop stop-color="#434CBB"/>
<stop offset="1" stop-color="#B3BCF7"/>
</linearGradient>
<linearGradient id="paint2_linear_659_2" x1="747.935" y1="454.264" x2="747.935" y2="510.112" gradientUnits="userSpaceOnUse">
<stop stop-color="#B3BCF7"/>
<stop offset="1" stop-color="#434CBB"/>
</linearGradient>
<linearGradient id="paint3_linear_659_2" x1="786.33" y1="542.478" x2="721.091" y2="526.43" gradientUnits="userSpaceOnUse">
<stop stop-color="#B3BCF7"/>
<stop offset="0.741512" stop-color="#434CBB"/>
</linearGradient>
<linearGradient id="paint4_linear_659_2" x1="272.548" y1="547.017" x2="272.548" y2="635.768" gradientUnits="userSpaceOnUse">
<stop offset="0.34" stop-color="#B3BCF7"/>
<stop offset="1" stop-color="#434CBB"/>
</linearGradient>
<linearGradient id="paint5_linear_659_2" x1="733.874" y1="626.158" x2="770.235" y2="642.796" gradientUnits="userSpaceOnUse">
<stop stop-color="#434CBB"/>
<stop offset="1" stop-color="#B3BCF7"/>
</linearGradient>
</defs>
</svg>
